<svg xmlns="http://www.w3.org/2000/svg" width="110" height="40.475" viewBox="0 0 110.00285 40.474757" enable-background="new 0 0 90 60">
 <defs/>
 <path class="bg" d="m100.66 40.467h3.066v-4.334l1.718-.331c.891-.167 1.345-.695 1.452-1.59l1.891-16.04.451-.15c.348-.106.515-.364.573-.726v-3.206c-.164-.783-1.465-1.145-2.145-1.266-1.102-.197-2.312-.12-3.381.197l-.955.272v-9.688c-.088-1.674-1.07-2.474-2.718-2.594h-91.41c-1.649.12-2.615.921-2.72 2.594v9.688l-.951-.272c-1.071-.317-2.282-.392-3.384-.197-.665.12-1.964.482-2.145 1.265l.268 2.966c.06.362.242.62.59.726l.454.15 1.868 16.15c.093.896.562 1.423 1.45 1.59l1.456.463v4.335h3.083l2.509-4.334h86.45l2.524 4.334" fill="none" fill-rule="evenodd"/>
 <g transform="matrix(1.42611 0 0 1.42611.007-45.1)">
  <path d="m5.53 40.39c.534.304.995.712 1.34 1.246l.041.073.022.073c.333 1.288.597 2.576.921 3.854 2.104-.283 4.724-.314 5.696-.304 1.571.0001 6.387.094 8.104 1.351 2.788-1.832 14.181-1.832 16.923.011 2.742-1.843 14.13-1.843 16.921-.011 1.717-1.257 6.534-1.341 8.115-1.351.963-.011 3.581.021 5.686.304.325-1.277.597-2.565.922-3.854l.021-.073.042-.073c.346-.534.807-.942 1.351-1.246v-6.43c-.062-.89-.523-1.246-1.393-1.31h-63.32c-.878.063-1.34.42-1.391 1.31v6.43m-.273 18.586h1.319l1.153-1.989h-2.472v1.989m3.657-1.99l-1.74 3.02h-2.951v-3.02h-.767c-.847-.146-1.34-.701-1.433-1.55l-1.258-11.02c-.407-.137-.678-.45-.753-.911l-.012-.042v-2.324l.012-.053c.179-.807 1.195-1.151 1.906-1.277.839-.137 1.75-.084 2.576.157v-6.06c.083-1.424.954-2.178 2.366-2.282h63.42c1.414.104 2.283.858 2.366 2.282v6.06c.827-.241 1.749-.294 2.576-.157.712.126 1.738.471 1.906 1.277l.0001.053v2.366c-.073.461-.355.774-.754.911l-1.256 11.02c-.105.849-.587 1.403-1.43 1.55h-.78v3.02h-2.942l-1.738-3.02h-59.33m62.993 1.99h-1.33l-1.142-1.989h2.472v1.989m-32.816-11.424v3.801l.137.084h15.454c.137 0 .241-.042.325-.136v-3.749c-1.634-1.581-14.283-1.581-15.916 0m16.941 0v3.759c.095.095.21.157.346.157h14.723c.23 0 .398 0 .398-.251v-3.896l-.095-.084c-.764-.743-6.639-.89-7.79-.879-1.163.0001-6.534.178-7.582 1.194m-33.873 0v3.749c.083.094.177.136.313.136h15.456l.138-.094v-3.791c-1.634-1.581-14.286-1.581-15.907 0m-16.502-.22v3.885c0 .251.166.251.407.251h14.711c.138 0 .253-.062.347-.157v-3.759c-1.035-1.016-6.417-1.184-7.581-1.193-1.153-.011-7.03.136-7.791.879l-.093.094m-.086-1.162c.346-.147.777-.263 1.279-.367-.281-1.131-.608-2.565-.89-3.675-.22-.325-.504-.576-.839-.786-.187-.115-.386-.209-.596-.282-.745-.283-1.643-.366-2.428-.23-.179.031-.943.23-1.059.45v2.104c.021.073.054.073.148.073l.512.032h1.833l.062.021c1.174.314 1.855 1.55 1.978 2.65zm16.588-11.246v4.04h15.907v-4.04h1.024v4.04h15.916v-4.04h1.025v4.04h12.07v1.037h-12.07v4.04h-1.025v-4.04h-15.916v4.04h-1.024v-4.04h-15.908v4.04h-1.037v-4.04h-12.07v-1.037h12.07v-4.04h1.037m16.419 17.35c-.188.126-.407.188-.67.199h-15.468c-.303-.011-.573-.095-.793-.254-.241.17-.525.274-.85.296h-14.733c-.808 0-1.413-.408-1.435-1.277v-4.618c-.136-.768-.407-1.812-1.246-2.084h-1.57l1.235 10.796c.043.377.188.565.544.639h69.969c.367-.073.503-.262.545-.639l1.235-10.796h-1.57c-.827.272-1.11 1.309-1.236 2.084v.084l-.035.214.035.193v4.126c-.031.869-.628 1.277-1.435 1.277h-14.732c-.325-.021-.607-.126-.849-.296-.23.159-.503.243-.807.254l-15.465.011c-.25-.0001-.48-.073-.669-.199m36.879-8.775h-1.832l-.063.021c-1.204.324-1.728 1.435-1.969 2.555-.387-.209-.774-.377-1.214-.492.282-1.151.523-2.304.816-3.455.23-.314.513-.576.848-.786.188-.104.388-.209.598-.282.743-.283 1.633-.356 2.419-.22.188.031.952.22 1.067.439v2.104c-.021.073-.052.073-.157.073l-.513.043" fill-rule="evenodd"/>
 </g>
</svg>
