<svg xmlns="http://www.w3.org/2000/svg" width="107" height="60.75" viewBox="0 0 107 60.75"><path fill="none" d="M9.5 57.7v2.4l-5.3-.14-.14-2.27h-1.4l-2-18.55s-.3-2.2.5-2.5c.8-.27 7.95-.3 7.95-.3l-.08-8.66s.2-1.92.76-2.36c.54-.45 1.97-.83 1.97-.83l32.46.03 2.8 1.3 1.9-1.32h7.74l.68 6.3 3.2 7.77 4.34 5.17 4.94 3.48 7.3 2.52 4.78.96 5.25-1.26 5.3-1.94-1.14 10.27-1.5.06-.07 2.27H84.7l-.3-2.35-74.9-.06z" class="bg"/><path fill="none" d="M72.07 38.28l-3.17-3.05 3.42-3.25-3.42-3.6 3.32-2.84-3.32-3.33 3.25-3.42-3.25-3.27 3-2.9 3.35 3.12 3.2-2.93 3.25 2.92 3.35-3.1 3.32 3.1 3.28-3.1 3.03 3-3.28 3.48 3.28 3.32-3.3 3.02 3.3 3.07-3.16 3.36 3.16 3.2-3.35 3.17-3.02-3.06-2.97 3.1-3.54-3.1-3.43 3.1-2.96-2.93" class="bg"/><path d="M11.7 58.4H2.1L.36 43.95C.27 42.54-.1 38-.05 37.5c.1-1.43 1.63-1.8 2.4-1.8h6.6c.4 0 2.37.05 2.72 1.34.15.57.08 13.23.02 20.72v.65zm-8.46-1.3h7.16c.05-7.78.1-19.03 0-19.77-.03-.12-.76-.34-1.46-.34H2.36s-1.07 0-1.12.6c0 .38.25 4.02.43 6.22l1.57 13.3z"/><path d="M10.14 60.75H3.56V57.7h1.3v1.75h3.98v-1.7h1.3M47.65 51.47H1.85v-1.3h44.5v-6c-.9-.72-5.4-3.64-17.83-3.64-13.96 0-16.86 3.68-16.88 3.7l-.2.28-.33.02H1.03v-1.3h9.8c.94-.96 4.94-4 17.7-4 14.76 0 18.78 4.03 18.95 4.2l.18.2v7.85z"/><path d="M47.65 58.4h-36.6v-1.3h35.3V27.2c-.02-.23-.15-1.08-.53-1.44-.38-.36-1.4-.57-1.83-.6H11.95c-.34 0-1.36.1-1.7.6-.17.27-.4 1.02-.5 1.5v9.08h-1.3l.02-9.28c.05-.23.3-1.43.7-2.03.8-1.14 2.58-1.17 2.78-1.17h32.1c.23.02 1.86.2 2.66.96.82.8.92 2.18.93 2.34V58.4zM81.4 50.76c-13.96 0-25.32-11.35-25.32-25.3C56.08 11.48 67.44.12 81.4.12s25.3 11.36 25.3 25.32c.02 13.95-11.34 25.3-25.3 25.3zm0-49.33c-13.24 0-24.02 10.77-24.02 24.02 0 13.24 10.77 24 24.02 24 13.24 0 24.02-10.76 24.02-24 0-13.25-10.78-24.02-24.02-24.02z"/><path d="M91.86 47.78l-.28 2.4h-8.02V50c-.44.05-.87.07-1.3.1v.07h-34.6v-6c.8-.65 4.55-3.07 14.3-3.55-.3-.4-.62-.82-.92-1.25-7.76.48-11.68 2.18-13.4 3.22V27.22c.02-.26.15-1.1.54-1.48.34-.32 1.27-.54 1.77-.6h6.8c0-.43 0-.86.04-1.3h-6.9c-.2.03-1.83.2-2.63.97-.8.8-.9 2.18-.92 2.37v31.2H83.87v2.35h6.58V58.4h1.47l1.35-11.33c-.45.26-.92.5-1.4.7zm-44.2 9.33v-5.63h34.6l.04 5.64H47.65zm41.48 2.35h-3.98V58.4h3.98v1.05zm1.6-2.34H83.6l-.03-5.63h7.85l-.67 5.64z"/><path d="M72.17 13.27l2.57 2.5.7.67.7-.68 2.54-2.48 2.47 2.5.68.7.72-.66 2.7-2.55 2.36 2.38.7.7.7-.68 2.54-2.4L94 15.72l-2.63 2.64-.7.7.7.7L94 22.45l-2.48 2.27-.8.74.8.74 2.5 2.32-2.56 2.7-.7.74.74.7 2.5 2.3-2.72 2.67-2.2-2.4-.7-.8-.76.77-2.35 2.45-2.77-2.56-.7-.63-.66.64-2.72 2.55-2.4-2.38-.7-.7-.7.7-2.45 2.38-2.6-2.5 2.66-2.5.72-.7-.7-.72-2.67-2.82 2.56-2.2.85-.72-.82-.76-2.6-2.45 2.65-2.5.75-.7-.72-.72-2.58-2.6 2.5-2.46m6.52-1.4l-3.26 3.17-3.28-3.18-3.9 3.87 3.3 3.3-3.43 3.2 3.36 3.2-3.36 2.88 3.4 3.6-3.4 3.22 4.04 3.9 3.13-3.07L78.4 39l3.42-3.2 3.5 3.22 3.03-3.16 2.9 3.2 4.2-4.13-3.27-3.03 3.25-3.45-3.23-3 3.24-2.97-3.36-3.4 3.35-3.36-3.88-3.84-3.23 3.07-3.04-3.08-3.42 3.22-3.16-3.24z"/><path fill="none" stroke="#000" stroke-width=".8" stroke-miterlimit="10" d="M75.4 1.54L57.38 19.58M83.5 1.03L56.96 27.55M69.42 22.67L58.15 33.95M89.86 2.24L79.23 12.86M70.1 29.56l-9.66 9.67M94.96 4.7l-8.8 8.82M70.53 36.72l-6.3 6.3M99.35 7.9l-6.1 6.1M77.45 37.36L68 46.8M102.5 12.32l-8.95 8.95M84.67 37.7l-11.2 11.22M104.7 17.67L94.26 28.13M105.96 24L79.64 50.32M105.12 32.4l-16.5 16.52"/></svg>