<svg xmlns="http://www.w3.org/2000/svg" width="110" height="42.597" viewBox="0 0 110.00259 42.596153" enable-background="new 0 0 90 60">
 <defs/>
 <path class="bg" d="m.609.655v41.28h34.09l8.646-4.987h66.05v-24.79h-8.263v-11.514h-100.52z" fill="none" fill-rule="evenodd"/>
 <g transform="matrix(1.32661 0 0 1.32661 0-37)">
  <path d="m0 27.891h76.7v8.665h6.22v19.691h-50.1l-6.492 3.753h-26.321v-32.11m58.926 6.261c.4 0 .728.326.728.738 0 .402-.327.729-.728.729-.411 0-.737-.327-.737-.729 0-.411.326-.738.737-.738zm-9.55 0c.411 0 .737.326.737.738 0 .402-.326.729-.737.729-.401 0-.738-.327-.738-.729 0-.411.327-.738.738-.738m19.1 0c.4 0 .728.326.728.738 0 .402-.327.729-.728.729-.411 0-.738-.327-.738-.729 0-.411.326-.738.738-.738m-45.18 0c.399 0 .727.326.727.738 0 .402-.327.729-.727.729-.412 0-.739-.327-.739-.729 0-.411.327-.738.739-.738m-9.553 0c.402 0 .739.326.739.738 0 .402-.337.729-.739.729-.41 0-.736-.327-.736-.729 0-.411.326-.738.736-.738m19.1 0c.399 0 .727.326.727.738 0 .402-.327.729-.727.729-.412 0-.739-.327-.739-.729 0-.411.327-.738.739-.738m-23.518-5.217v7.885h19.542v6.338h7.02l1.215.693 1.211-.693h1.97v-14.223h-30.958m-1.034 7.884v-7.885h-7.254v7.885h7.254m33.02-7.884v14.223h2.5l1.212.693 1.213-.693h5.491l1.213.693 1.212-.693h5.503l1.212.693 1.212-.693h5.503l1.212.693 1.213-.693h5.502l.148.082v-14.305h-34.35m-16.09 30.03v-18.522h-24.19v18.521h24.19m6.745-7.769l-3.108.833v5.303l3.108-1.792v-4.344m-3.108-.242l3.108-.833v-5.935h-3.108v6.768m-1.043 6.979v-17.489h-1.55v18.385l1.55-.896m5.186-2.72h42.642v-4.143h-42.642v4.143m0-5.187h42.642v-5.587l-.433-.253h-4.943l-1.455.844-.031-.042-.032.042-1.465-.844h-4.934l-1.465.844-.032-.042-.031.042-1.455-.844h-4.943l-1.466.844-.021-.042-.032.042-1.465-.844h-4.944l-1.454.844-.032-.042-.031.042-1.465-.844h-4.944l-1.454.844-.033-.042-.021.042-1.465-.844h-2.604v5.84h.008m-5.186-12.164h-26.787v1.549h26.787v-1.549m48.87 7.158l.021-.042v-1.128l-.021-.008v-3.142h5.176v14.513h-5.176v-10.193m5.176-7.432h-5.176v2.079h5.176v-2.079" fill-rule="evenodd"/>
 </g>
</svg>
