<svg xmlns="http://www.w3.org/2000/svg" width="101.3" height="80" viewBox="0 0 101.3 80"><path class="bg" fill="none" d="M.8 59l.7-6.3 2.8-5.6 2.5-3 4.3-3L16 39l4-.8 5.7.6 6.7 2.6 4 3.4 2.6 2.8 18 .1.9 1 .2 6h4l.5-6 .7-1h28l.8.8.3 6.1 7.4.2.7.8v2.5L99 71.8v7.8h-3.4l-.3-3.3L32 76 28.2 78l-5.5 1.4s-4.8.3-8.7-1.4c-3.9-1.8-7.5-4.7-7.5-4.7l-4.3-7-1.4-7.2z"/><path d="M101.3 56.7s0-1-.4-1.6c-.4-.8-1-1-1-1h-7v-4.5s0-1-.4-1.6c-.4-.7-1.1-1-1.1-1H63s-.7.3-1 1c-.5.7-.5 1.6-.5 1.6V54H58.6v-4.4s0-1-.4-1.6c-.3-.7-1-1-1-1H38.8a21.3 21.3 0 1 0-18.5 33h5v-.4A21 21 0 0 0 32 77h62.8v3h5v-9l1.5-14.3zm-38.3-1V49.5l.1-.6.5-.7h27.2l.5.7v14.5a36 36 0 0 0-13.7-2.3c-7 0-12 1.3-14.6 2.3v-7.9zm14.6 6.8c10.2 0 15.1 3.3 15.1 3.3l.5.8.1.5v4H60.8v-4l.1-.5.5-.8s6.1-3.3 16.2-3.3zm-19-7.1H61.5V64l-.7.4-.7.5c-.4-.4-.8-.5-.8-.5l-.7-.4v-8.7zm.1 10.2s.5.7.5 1l.1.5v4H38.6c1.7-2.5 3-5.4 3.5-8.6h.4c10.7 0 16.2 3 16.2 3zm-2.2-17.3l.5.7.1.6v13.9c-2.6-1-7.5-2.3-14.6-2.3h-.2l.1-2.4c0-3.8-1-7.4-2.7-10.5h16.8zM21.2 78.8a20 20 0 1 1 0-40 20 20 0 0 1 0 40zm77-.1h-1.9v-3H34c1.3-1 2.5-2 3.5-3.3h60.8v6.3zm0-7.7h-3.4v-3.9s0-.9-.4-1.6c-.3-.7-1-1-1-1l-.5-.3v-8.8h6.3l.5.7.1.5L98.3 71z"/><path d="M7.8 56.5c0-.8.6-1.4 1.6-1.4.8 0 1.4.3 1.9.8l.6-.8c-.6-.6-1.5-1-2.6-1-1.7 0-2.7 1-2.7 2.4 0 3 4.5 2.3 4.5 4.6 0 1-.9 1.4-1.8 1.4a3 3 0 0 1-2.3-1l-.6.7c.4.9 1.7 1.4 2.9 1.4 1.6 0 3-1 3-2.5 0-3.2-4.6-2.4-4.6-4.6zM17 54.1l-3.9 9.3h1.2l1.1-2.8h4.2l1.2 2.8H22L18 54h-1zM16 59.6l1.6-4 1.6 4H16zM29.2 62.3h-4.5v-8.1h-1.1v9.2h5.6zM32 59.3h3.6v-1h-3.7v-3h4v-1.1h-5.1v9.2h5.3v-1H32z"/></svg>