<svg xmlns="http://www.w3.org/2000/svg" width="64.1" height="80"><path class="bg" fill="none" d="M6.3 79.2L.9 73.9l4-4.1-4-4.2 4-4.2-4-4.2 4-4.1-4-4.2 4-4.2-4-4.2 4-4.2-4-4.2 4-4.1-4-4.2 5.4-5.3 4.1 4.2 4.3-4-4.1-4.3L16 9.2l4.2 4.1 4.2-4.1 4.1 4.1 4.2-4.1 4.2 4.1 4.2-4.1 4.2 4.1 4.2-4.1 4.1 4.1 4.2-4.1 5.5 5.2-4.2 4.2 4.2 4.2-4.2 4.1 4.2 4.2-4.2 4.2 4.2 4.2-4.2 4.1 4.2 4.3L59 52l4.2 4.2-4.2 4.2 4.2 4.2-5.5 5.2-4.3-4.2-4.1 4.1 4.1 4.2-5.4 5.3-4.2-4.2-4.2 4.2-4.1-4.2-4.2 4.2-4.2-4.2-4.2 4.2L19 75l-4.2 4.2-4.2-4.2z"/><path d="M57.8 70.6l6.3-6-4.1-4.2 4.1-4.2L60 52 64 48 60 43.7l4.1-4.2-4.1-4.2 4.1-4.2L60 27l4.1-4.1-4.1-4.2 4.1-4.2-6.3-6-4.2 4-4.1-4-4.2 4-4.2-4-4.2 4-4.2-4-4.2 4-4.1-4-4.2 4-4.2-4-6.3 6 4 4.2-3.3 3.2-4.1-4-6.3 6L4.1 28 .1 32l4 4.2-4 4.2 4 4.2-4 4.2L4 53l-4 4.1 4 4.2-4 4.2 4 4.2L0 73.9l6.3 6 4.2-4 4.2 4 4.2-4 4.1 4 4.2-4 4.2 4 4.2-4 4.1 4 4.2-4 4.2 4 6.3-6-4.2-4.2 3.3-3.3 4.3 4.2zM11.4 14.4L16 10l4.2 4.2 4.2-4.2 4.1 4.2 4.2-4.2 4.2 4.2L41 10l4.1 4.2 4.3-4.2 4.1 4.2 4.2-4.2 4.6 4.4-4.1 4.2 4.1 4.2-4.1 4.1 4.1 4.2-4.1 4.2 4.1 4.2-4.1 4.1 4.1 4.3-4.1 4.1 4.1 4.2-4.1 4.2 4.1 4.2-4.6 4.4-3.7-3.7-3.9-4 4.2-4-4.2-4.3 4.2-4.1-4.2-4.3 4.2-4.1-4.2-4.2 4.2-4.2-4.2-4.2 4.2-4.1-6.3-6-4.2 4-4.2-4-4.2 4-4.1-4-4.2 4-4.2-4-4.2 4-4.1-4-3.3-3.4zm37.2 55.3l-.6.6.8.8.6-.5 3.3 3.3-4.6 4.4-3.3-3.3 1.8-1.7-.8-.9-1.9 1.8-4.2 4.1-4.1-4.1-4.2 4.1-4.2-4.1-4.2 4.1-3.3-3.3 1.8-1.7-.9-.9-2.2 2.2-3.7 3.7-4.2-4.1-4.2 4.1L1.7 74l4.1-4.1-4.1-4.2 4.1-4.2-4.1-4.2 4.1-4.1-.2-.3L7.4 51l-.9-.8L4.7 52l-3-3.1 4.1-4.2-2.2-2.2 1.8-1.8-.8-.8-1.8 1.7-1.1-1 4.1-4.2-4.1-4.2 3.7-3.8 2.2-2.1-.8-.9L5 27.1l-3.3-3.3 4.6-4.4 3.3 3.3-.6.5.9.9.5-.6.4-.4 3.8-3.7 4.2 4.1 4.2-4.1 4.2 4.1 4.2-4.1 4.1 4.1 4.2-4.1 4.2 4.1 4.2-4.1 4.6 4.4-4.1 4.1 2.2 2.4-.4.4.9.8.4-.4 1 1-4.1 4.2 4 4.2-4 4.1 4 4.2-4 4.2 2.2 2.3L49 57l.8.9 1.8-1.8 1 1.1-4 4.2 4 4.2-4 4.1zm-32.2-40l-.8-.8 2.2-2.2.9.8-2.3 2.2zm4.5-4.4l-.9-.8 2.2-2.2.9.9-2.2 2.1zM7.6 38.5l-.8-.8L9 35.5l.8.8-2.2 2.2zm4.4-4.4l-.8-.8 2.2-2.2.8.8-2.2 2.2zm15.2-2.8l-.8-.9 2.2-2.2.8.9-2.2 2.2zM22 34.8l2.2-2.2.8.9-2.2 2.2-.8-.9zM13 43.6l2.2-2.2.9.9-2.2 2.2-.9-.9zM8.7 48l2.2-2.2.9.8-2.2 2.2-.9-.8zm8.8-8.8l2.3-2.2.8.9-2.2 2.2-.9-.9zM31.6 27l-.8-.8 2.2-2.2.8.8-2.2 2.2zM12.2 58.5L10 60.7l-.8-.9 2.2-2.2.8.9zm-4.4 4.3L5.6 65l-.8-.8L7 62l.8.8zm37.5-37.2l-.8-.9 2.2-2.2.8.9-2.2 2.2zM24.6 44.4l.9.9-2.2 2.2-.9-.9 2.2-2.2zm12-10l-1-1 2.3-2.1.8.8-2.2 2.2zM16.5 54l-2.2 2.2-.8-.9 2.2-2.2.8.9zM41 29.9l-.8-.8 2.2-2.2.8.9-2.2 2.1zm-7.4 5.8l.8.8-2.2 2.2-.9-.8 2.3-2.2zM21 49.7l-2.3 2.2-.8-.9 2.2-2.2.9.9zm6.6-6.6l-.9-.8L29 40l.9.8-2.2 2.2zM8.5 72.3l.8.9-2.5 2.5L6 75l2.5-2.6zm19.9-19.7l2.2-2.2.8.9-2.2 2.2-.8-.9zM26 54.8l.9.8-2.2 2.2-.9-.8 2.2-2.2zm9.7-8l-2.2 2.3-.8-.9L35 46l.8.9zm13.3-13l-2.2 2.1-.9-.8 2.2-2.2.9.8zm-8.9 8.7L38 44.7l-.8-.9 2.2-2.2.8.9zm4.4-4.4l-2.2 2.2-.8-.9 2.2-2.2.8.9zm-22.9 21l.9 1-2.2 2.1-.9-.8 2.2-2.2zM13 68l.8.8-2.2 2.2-.8-.9 2.2-2.1zm4.4-4.4l.9.8-2.2 2.2-.9-.8 2.2-2.2zm7.8 4.4l.8.9-2.2 2.2-.8-.9L25 68zM38.3 55l.8.8L37 58l-.8-.9 2.2-2.1zm4.4-4.4l.8.8-2.2 2.2-.8-.8 2.2-2.2zm-8.8 8.7l.8.9-2.2 2.2-.8-.9 2.2-2.2zM47 46.1l.9.8-2.2 2.2-.9-.8 2.2-2.2zM29.5 63.6l.8.9-2.2 2.2-.8-.9 2.2-2.2zM38 68l.8.9-2.2 2.1-.9-.8L38 68zm-4.5 4.4l.9.8-2.2 2.2-.9-.8 2.2-2.2zm8.9-8.8l.8.9-2.2 2.2-.8-.9 2.2-2.2zm4.4-4.4l.8.9-2.2 2.2-.8-.9 2.2-2.2z"/></svg>