<svg xmlns="http://www.w3.org/2000/svg" width="49.8" height="80" viewBox="0 0 49.8 80"><path class="bg" fill="none" d="M40.5 80h3v-4H45c.8-.2 1.2-.7 1.3-1.6L48.2 58l.4-.1c.4-.1.5-.4.6-.7v-3c-.2-.8-1.4-1.1-2-1.2a7 7 0 0 0-3.2.1l-1 .3V43.3c0-1.6-1-2.4-2.5-2.5H8.7c-1.6.1-2.5.9-2.6 2.5v10.1l-.9-.3c-1-.3-2.1-.3-3.2-.1-.6 0-1.8.4-2 1.1l.3 3c0 .3 0 .5.3.6l.4.3L3 74.2c0 .9.5 1.1 1.3 1.3l1.3.4V80h3l2.3-4h27.2l2.3 4"/><path d="M12.1 50.8h25.6v1.4H12.1z"/><path d="M49.8 53.7c-.2-1.1-1.6-1.6-2.5-1.7a8 8 0 0 0-3.5.2V43c-.1-2-1.3-3-3.2-3.1H9.2c-1.9.1-3 1.1-3.2 3v9.2a8 8 0 0 0-3.4-.2c-1 .1-2.4.6-2.6 1.7V57c.1.6.5 1 1 1.2L2.7 74c.2 1.1.8 1.8 2 2h1v4h4l2.3-4h25.9l2.3 4h4v-4h1c1.1-.1 1.8-.9 2-2L48.7 58c.5-.2.9-.6 1-1.2v-3.2zM7.4 43c0-1.2.7-1.6 1.9-1.7h31.2c1.2 0 1.8.5 2 1.7v9.6c-.8.4-1.4 1-1.9 1.7v.2l-1.3 5H10.5l-1.2-5-.1-.2c-.5-.7-1-1.2-1.8-1.7v-9.6zM42 62l.1.1v5.2c0 .4-.2.4-.5.4H8.1c-.3 0-.5 0-.5-.4V62c.4-.5 1.6-.7 3-.8h28.5c1.5.1 2.7.3 3 .7zM1.6 57l-.2-.1v-2.9c.2-.3 1.2-.5 1.4-.6a6.4 6.4 0 0 1 4 .7L8 55l1.2 5c-.7.1-1.3.3-1.7.5-.2-1.5-1.1-3.1-2.7-3.6H1.5zm7.2 21.7H7V76h3.4l-1.6 2.6zm34 0H41L39.5 76h3.3v2.6zm3-4.9c-.1.5-.3.8-.8.9H4.8c-.5-.1-.7-.4-.7-.9L2.4 58.3h2.1C5.6 58.6 6 60 6.2 61v6.2c0 1.1.8 1.7 2 1.7h33.5c1 0 1.9-.6 2-1.7V61c.1-1 .5-2.5 1.6-2.8h2l-1.6 15.4zm2.7-17c0 .2-.1.2-.2.2H45c-1.6.5-2.5 2.1-2.7 3.6-.5-.2-1-.4-1.7-.5l1.2-5a4 4 0 0 1 1.9-1.4c1-.3 2.2-.4 3.2-.3.3 0 1.3.3 1.5.6v2.9z"/></svg>