<?xml version="1.0" encoding="utf-8"?>
<!-- Generator: Adobe Illustrator 22.0.1, SVG Export Plug-In . SVG Version: 6.00 Build 0)  -->
<svg version="1.1" id="Слой_1" xmlns="http://www.w3.org/2000/svg" xmlns:xlink="http://www.w3.org/1999/xlink" x="0px" y="0px"
	 width="90.705px" height="45.639px" viewBox="0 0 90.705 45.639" enable-background="new 0 0 90.705 45.639" xml:space="preserve">
<polygon class="bg" fill="none" points="5.228,45.07 7.228,45.07 8.478,35.695 82.04,35.695 83.415,45.07 85.228,45.07 85.228,35.695 
	88.415,35.695 89.853,33.945 89.853,30.945 89.853,26.507 89.506,24.776 84.811,24.07 64.889,24.07 65.228,22.82 65.478,9.445 
	65.415,2.236 63.853,0.507 59.478,0.507 17.478,0.507 16.165,1.2 15.555,1.882 13.728,1.507 11.915,1.882 10.11,2.832 9.665,3.695 
	8.353,1.945 5.54,1.882 2.415,1.82 0.915,2.882 0.54,5.32 0.54,30.757 0.915,34.32 2.165,35.507 4.04,35.882 4.978,36.007 "/>
<g>
	<path d="M87.532,23.577H65.714c0.231-0.339,0.374-0.724,0.374-1.14V2.34c0-1.29-1.271-2.34-2.832-2.34H18.07
		c-1.191,0-2.208,0.613-2.626,1.475c-0.496-0.26-1.04-0.42-1.654-0.437C12.526,1,11.449,1.401,10.642,2.186
		c-0.201,0.195-0.377,0.413-0.532,0.646c-0.482-0.939-1.3-1.545-2.245-1.545h-5.16C1.188,1.287,0,2.846,0,4.835V32.86
		c0,1.989,1.188,3.548,2.705,3.548h1.893l0.156,9.229h2.87l1.396-9.229h0.379c0.008,0,0.015-0.003,0.023-0.003h72.167l1.397,9.234
		h2.869l0.156-9.234h1.521c1.75,0,3.173-1.423,3.173-3.172v-6.484C90.705,25,89.282,23.577,87.532,23.577z M84.676,44.44h-0.658
		l-1.215-8.032h2.008L84.676,44.44z M18.07,1.2h45.186c0.885,0,1.633,0.522,1.633,1.14v20.097c0,0.618-0.748,1.14-1.633,1.14H21.615
		c0.27-2.372-0.916-8.674-1.504-11.573c-0.834-4.118-1.776-7.926-3.656-9.78C16.543,1.658,17.242,1.2,18.07,1.2z M11.479,3.046
		c0.546-0.531,1.292-0.81,2.165-0.81c0.038,0,0.076,0,0.113,0.001c2.925,0.08,4.162,4.986,5.179,10.004
		c0.931,4.593,1.721,9.951,1.53,11.23h-7.897c-0.423,0-0.881-0.587-1.058-1.461l-0.55-10.036l-0.346-6.827
		C10.615,4.346,10.93,3.58,11.479,3.046z M2.705,35.208c-0.816,0-1.505-1.076-1.505-2.349V4.835c0-1.273,0.689-2.349,1.505-2.349
		h5.16c0.816,0,1.505,1.076,1.506,2.381l0.393,7.171l0.469,9.246c0,0.307,0.035,0.597,0.086,0.877l0.586,10.697
		c0,1.263-0.68,2.33-1.487,2.346H9.202H8.145H4.578l0,0.003H2.705z M6.592,44.437H5.934l-0.135-8.029h2.007L6.592,44.437z
		 M89.506,33.233c0,1.088-0.886,1.973-1.974,1.973H11.426c0.419-0.627,0.678-1.449,0.677-2.379l-0.441-8.051h6.407h45.186h24.276
		c1.088,0,1.974,0.885,1.974,1.973V33.233z"/>
	<path d="M24.653,12.988h8.078v4.036c0,0.332,0.269,0.6,0.6,0.6s0.6-0.269,0.6-0.6v-4.036h14.376v4.036c0,0.332,0.269,0.6,0.6,0.6
		s0.6-0.269,0.6-0.6v-4.036h8.26c0.331,0,0.6-0.269,0.6-0.6s-0.269-0.6-0.6-0.6h-8.26V7.752c0-0.332-0.269-0.6-0.6-0.6
		s-0.6,0.269-0.6,0.6v4.036H33.931V7.752c0-0.332-0.269-0.6-0.6-0.6s-0.6,0.269-0.6,0.6v4.036h-8.078c-0.332,0-0.6,0.269-0.6,0.6
		S24.321,12.988,24.653,12.988z"/>
</g>
</svg>
