<?xml version="1.0" encoding="utf-8"?>
<!DOCTYPE svg PUBLIC "-//W3C//DTD SVG 1.1//EN" "http://www.w3.org/Graphics/SVG/1.1/DTD/svg11.dtd">
<svg version="1.1" xmlns="http://www.w3.org/2000/svg" xmlns:xlink="http://www.w3.org/1999/xlink" x="0px" y="0px" width="53px" height="80px" viewBox="0.031 0 53 80" enable-background="new 0.031 0 53 80" xml:space="preserve">
	<path class="bg" fill="none" d="M12.307,79.286h6.567L33.187,79.4c0,0,8.295,0.92,11.152-1.957s3.652-3.9,4.5-6.245 s3.873-10.808,3.401-17.956s-1.589-16.268-4.571-20.224s-10.361-3.136-11.797-0.452s-1.688,2.469-2.93,4.687 s-3.337,5.625-4.637,7.268s-4.17,4.864-4.738,5.423s-0.815,1.61-3.004,1.146s-6.848,0.682-9.3,1.265s-8.044,3.583-9.639,8.333 s-1.03,8.851,0.389,11.148s2.96,4.659,5.32,5.747S12.307,79.286,12.307,79.286z"/>
	<path fill="none" stroke="#000000" stroke-width="1.2" stroke-linecap="round" stroke-miterlimit="10" d="M45.988,31.353 l2.021-2.024c0.967-0.97,2.539-0.97,3.506,0c0.969,0.969,0.969,2.542,0,3.512l-2.021,2.024"/>
	<path fill="none" stroke="#000000" stroke-width="1.2" stroke-linecap="round" stroke-miterlimit="10" d="M49.201,35.71 c4.301,11.817,4.043,24.995-0.795,36.561"/>
	<path fill="none" stroke="#000000" stroke-width="1.2" stroke-linecap="round" stroke-miterlimit="10" d="M14.039,79.4 c-7.406,0-13.408-6.077-13.408-13.575c0-5.69,3.458-10.563,8.363-12.583"/>
	<path fill="none" stroke="#000000" stroke-width="1.2" stroke-linecap="round" stroke-miterlimit="10" d="M7.264,54.122 c8.981-4.952,19.681-3.724,27.134,2.277"/>
	<path fill="none" stroke="#000000" stroke-width="1.2" stroke-linecap="round" stroke-miterlimit="10" d="M34.183,34.812 c1.371-2.665,4.131-4.486,7.311-4.486c3.525,0,6.533,2.239,7.707,5.384"/>
	<path fill="none" stroke="#000000" stroke-width="1.2" stroke-linecap="round" stroke-miterlimit="10" d="M36.433,62.467 c-7.253,7.335-19.006,7.341-26.251,0.017"/>
	<path fill="none" stroke="#000000" stroke-width="1.2" stroke-linecap="round" stroke-miterlimit="10" d="M21.038,67.825 c-2.801-1.209-5.143-3.503-6.364-6.586"/>
	<path fill="none" stroke="#000000" stroke-width="1.2" stroke-linecap="round" stroke-miterlimit="10" d="M34.13,34.864 C31.286,40.978,27.311,46.448,22.481,51"/>
	<path fill="none" stroke="#000000" stroke-width="1.2" stroke-linecap="round" stroke-miterlimit="10" d="M48.406,72.271 c-1.613,4.174-5.625,7.129-10.32,7.129"/>
	<path fill="none" stroke="#000000" stroke-width="1.2" stroke-miterlimit="10" stroke-dasharray="2.3178,1.7384" d="M47.232,46.345c1.154,8.747,0.025,17.741-3.398,25.927"/>
	<path fill="none" stroke="#000000" stroke-width="1.2" stroke-miterlimit="10" d="M43.833,72.271 c-0.141,0.363-0.299,0.717-0.475,1.061"/>
	<path fill="none" stroke="#000000" stroke-width="1.2" stroke-miterlimit="10" stroke-dasharray="2.5887,1.9415" d="M42.33,74.978c-1.616,2.146-3.979,3.685-6.697,4.218"/>
	<path fill="none" stroke="#000000" stroke-width="1.2" stroke-miterlimit="10" d="M34.671,79.34 c-0.381,0.04-0.768,0.061-1.158,0.061"/>	
	<line fill="none" stroke="#000000" stroke-width="1.2" stroke-linecap="round" stroke-miterlimit="10" x1="14.039" y1="79.4" x2="38.085" y2="79.4"/>
</svg>
