<svg xmlns="http://www.w3.org/2000/svg" width="53.3" height="80" viewBox="0 0 53.3 80"><path class="bg" fill="none" d="M4 79.5h3l2.2-4h35.3l2.3 4h3v-4h1.6c.8 0 1.4-.7 1.4-1.4V56.6c0-.3-.1-.7-.3-1l-.5-.4.5-.5c.2-.2.3-.6.3-.9v-5.1c0-.8-.6-1.4-1.4-1.4h-49c-.8 0-1.5.6-1.5 1.4v5.1c0 .3.2.7.4 1l.4.4-.4.5c-.2.2-.4.6-.4.9v17.5c0 .7.7 1.4 1.4 1.4H4v4z"/><path d="M53.3 48.8c0-1-1-2-2-2H2a2 2 0 0 0-2.1 2V54c0 .6.2 1 .5 1.4-.3.4-.5.9-.5 1.4v17.2C0 75.1 1 76 2 76h1.1v4h4l2.3-4h34.5l2.3 4h4v-4h1c1.1 0 2-1 2-2V56.6c0-.5-.1-1-.4-1.4.3-.3.5-.8.5-1.4v-5zm-52 0c0-.3.4-.6.8-.6H51.2c.4 0 .7.3.7.6V54c0 .4-.3.7-.7.7H2.1a.7.7 0 0 1-.7-.7v-5zm5 29.8H4.5V76h3.3l-1.5 2.6zm42.5 0H47L45.5 76h3.3v2.6zm3.1-4.7c0 .4-.3.7-.7.7H2.1a.7.7 0 0 1-.7-.7V56.7c0-.4.3-.7.7-.7h49.1c.4 0 .7.3.7.7V74z"/></svg>