<svg xmlns="http://www.w3.org/2000/svg" width="84.5" height="79"><path class="bg" fill="none" d="M83.6 78.4H2.4l2.7-3.8L6.2 66 4.9 47 .6 33.2l21.2 3.5-5.6-16.5 15.6 3 .3 1.6 2.3-1.3 14.4 1 11.4-1.1 21.6-3.2-3.5 12-2 1.2 1.6.8 1 15-.3 17.5.5 2-1.2 2 1.7-.3z"/><path fill="none" stroke="#000" stroke-width="1.1" stroke-linecap="round" stroke-linejoin="round" stroke-miterlimit="10" d="M83.6 78.4H2.4l2.7-3.8L6.2 66l-1-10.5-.3-8.7L.6 33.2l11.7 2.3 9.5 1.2-5.6-16.5 15.6 3 .3 1.6 2.3-1.3s10.6 1.2 15.9 1c5.3-.2 31.5-4.3 31.5-4.3l-3.5 12-2 1.2 1.6.8s1 8.4 1 13.2L78.6 64v2.8l.5 2.2-1.4 1.9 1.9-.5 4 8zm-65.2 0h-16l2.7-3.8L6.2 66l-1-10.5-.3-8.7-.4-1.3-4-12.4s9 1.9 14.1 2.6c8.4 1.3 6.4.8 7.2.9m10-13.5c.4 0-.1 1.5.3 1.6.7.1 1.6-1.4 2.3-1.3 4.1.6 10 .9 14.8 1 5.3 0 32.6-4.3 32.6-4.3l-3.6 12.2-2.2.8 2 1s1 9.2 1 15.1l-.4 17 .6 2.9-1.8 2.1 2.2-1 4.3 8.1H18.6l3.5-5 1.7-9.6-.3-1.2S22.7 55 22.3 49c-.3-6 .6-9 .6-9l1.6-1.7h-2.2l-6-18.1s9 1.9 15.5 3zM51 45.3l-4 6 4 6 4-6-4-6m-13.5 0l-4 6 4 6 4.1-6-4-6m26.9 0l-4 6 4 6 4-6-4-6m-20.2 9.3l-4.1 6 4 6 4.1-6-4-6m0-18.6l-4.1 6 4 6 4.1-6-4-6m13.4 0l-4 6 4 6 4.1-6-4-6m0 18.6l-4.1 6 4 6 4.1-6-4-6m-35.5-9.8l-2.1-2-3 3-3.1-3.3-3.6 3.6-3.6-3.5L4.5 45m18 8.8l-2.3-2.3-3 3-3.1-3.2-3.6 3.6-3.6-3.6-1.7 1.8M23.9 64l-3.3-3.3-3 3-3.1-3.3-3.6 3.6-3.5-3.5-1.6 1.7m0 7.5l3.9 3.9 3.6-3.6 3.2 3.2 2.9-3 2.8 2.9"/></svg>