<svg xmlns="http://www.w3.org/2000/svg" height="40.475" width="103.66" version="1.1" enable-background="new 0 0 80.5 31.432" viewBox="0 0 103.65927 40.474759">
    <g class="bg" fill="none">
        <rect height="1.844" width="6.6162" y="37.987" x="2.4685"/>
        <rect height="1.844" width="6.6149" y="37.987" x="21.911"/>
        <rect height="1.844" width="6.6162" y="37.987" x="72.256"/>
        <rect height="1.844" width="6.2376" y="37.987" x="95.561"/>
        <rect height="1.844" width="6.2376" y="37.987" x="56.867"/>
        <path class="bg" d="m103.02 36.162c0 1.007-0.81769 1.8247-1.8247 1.8247h-29.187c-1.007 0-1.8247-0.81768-1.8247-1.8247v-33.459c0-1.0083 0.81768-1.8247 1.8247-1.8247h29.187c1.007 0 1.8247 0.81768 1.8247 1.8247v33.459z"/>
        <path class="bg" d="m65.459 36.162c0 1.007-0.81768 1.8247-1.8247 1.8247h-61.165c-1.0083 0-1.8247-0.81768-1.8247-1.8247v-33.459c0-1.0083 0.81768-1.8247 1.8247-1.8247h61.165c1.007 0 1.8247 0.81768 1.8247 1.8247v33.459z"/>
    </g>
    <g stroke="#000" fill="none" transform="scale(1.2877)">
        <rect height="9" width="25.5" y="20.5" x="54.5"/>
        <path d="m54.5 20.5v-3.11c0-1.104 0.896-2 2-2h21.5c1.104 0 2 0.896 2 2v3.11"/>
        <path d="m54.5 18.333v-15.833c0-1.104 0.896-2 2-2h21.5c1.104 0 2 0.896 2 2v15.833"/>
        <line y2="8.056" x2="76.917" y1="8.056" x1="57.917"/>
        <line y2="11.556" x2="63.167" y1="4.556" x1="63.167"/>
        <line y2="11.556" x2="72.167" y1="4.556" x1="72.167"/>
        <line y2="8.056" x2="22.917" y1="8.056" x1="3.917"/>
        <line y2="11.556" x2="9.167" y1="4.556" x1="9.167"/>
        <line y2="11.556" x2="18.167" y1="4.556" x1="18.167"/>
        <line y2="8.056" x2="47.917" y1="8.056" x1="28.917"/>
        <line y2="11.556" x2="34.167" y1="4.556" x1="34.167"/>
        <line y2="11.556" x2="43.167" y1="4.556" x1="43.167"/>
        <polyline points="26.504 29.5 0.5 29.5 0.5 20.5"/>
        <path d="m0.5 20.5v-3.11c0-1.104 0.896-2 2-2h19.004c1.104 0 2 0.896 2 2v3.11"/>
        <path d="m0.5 20.5v-19c0-0.552 0.448-1 1-1h24.167 24.167c0.553 0 1 0.448 1 1v19"/>
        <path d="m17.83 15.39h31.004c1.104 0 2 0.896 2 2v3.11h-26.834"/>
        <polyline points="50.834 20.5 50.834 29.5 25.834 29.5"/>
        <polyline points="79.055 29.5 79.055 30.932 74.113 30.932 74.113 29.5" class="bg"/>
        <polyline points="61.055 29.5 61.055 30.932 56.113 30.932 56.113 29.5" class="bg"/>
        <polyline points="49.055 29.5 49.055 30.932 44.113 30.932 44.113 29.5" class="bg"/>
        <polyline points="22.055 29.5 22.055 30.932 17.113 30.932 17.113 29.5" class="bg"/>
        <polyline points="7.055 29.5 7.055 30.932 2.113 30.932 2.113 29.5" class="bg"/>
        <line y2="20.682" x2="26.25" y1="0.682" x1="26.25"/>
        <line y2="29.766" x2="23.504" y1="20.432" x1="23.504"/>
    </g>
</svg>
