<svg version="1.1" xmlns="http://www.w3.org/2000/svg" xmlns:xlink="http://www.w3.org/1999/xlink" x="0px" y="0px"
	 width="44px" height="38px" viewBox="0 0 44 38" enable-background="new 0 0 44 38" xml:space="preserve">
<path d="M31.637,27.222l-5.45-5.45c1.206-1.554,1.931-3.507,1.931-5.632c0-5.04-4.049-9.14-9.026-9.14
	c-4.977,0-9.025,4.1-9.025,9.14s4.049,9.14,9.025,9.14c2.164,0,4.151-0.776,5.708-2.067l5.423,5.423
	c0.195,0.195,0.451,0.293,0.707,0.293s0.512-0.098,0.707-0.293C32.028,28.246,32.028,27.613,31.637,27.222z M12.067,16.14
	c0-3.937,3.151-7.14,7.025-7.14s7.026,3.203,7.026,7.14s-3.152,7.14-7.026,7.14S12.067,20.077,12.067,16.14z"/>
</svg>
